<?xml version="1.0" encoding="UTF-8"?>
<svg xmlns="http://www.w3.org/2000/svg" xmlns:xlink="http://www.w3.org/1999/xlink" width="60pt" height="60pt" viewBox="0 0 60 60" version="1.2">
<defs>
<clipPath id="clip1">
  <path d="M 0.414062 0 L 59.664062 0 L 59.664062 59.25 L 0.414062 59.25 Z M 0.414062 0 "/>
</clipPath>
<clipPath id="clip2">
  <path d="M 45 29 L 57.832031 29 L 57.832031 42 L 45 42 Z M 45 29 "/>
</clipPath>
<clipPath id="clip3">
  <path d="M 45 25 L 57.832031 25 L 57.832031 30 L 45 30 Z M 45 25 "/>
</clipPath>
<clipPath id="clip4">
  <path d="M 2.332031 2.160156 L 57.832031 2.160156 L 57.832031 56.820312 L 2.332031 56.820312 Z M 2.332031 2.160156 "/>
</clipPath>
</defs>
<g id="surface1">
<g clip-path="url(#clip1)" clip-rule="nonzero">
<path style=" stroke:none;fill-rule:nonzero;fill:rgb(100%,34.118652%,34.118652%);fill-opacity:1;" d="M 59.664062 49.777344 C 59.664062 55.191406 55.605469 59.253906 50.1875 59.253906 L 9.890625 59.253906 C 4.472656 59.253906 0.414062 55.191406 0.414062 49.777344 L 0.414062 9.476562 C 0.414062 4.0625 4.472656 0 9.890625 0 L 50.1875 0 C 55.605469 0 59.664062 4.0625 59.664062 9.476562 L 59.664062 49.777344 "/>
</g>
<path style=" stroke:none;fill-rule:nonzero;fill:rgb(100%,34.118652%,34.118652%);fill-opacity:1;" d="M 50.007812 56.414062 L 10.070312 56.414062 C 5.769531 56.414062 2.335938 53.867188 1.136719 50.136719 C 1.496094 55.042969 5.328125 58.632812 10.359375 58.632812 L 49.714844 58.632812 C 54.75 58.632812 58.578125 55.042969 58.941406 50.136719 C 57.742188 53.867188 54.308594 56.414062 50.007812 56.414062 "/>
<path style=" stroke:none;fill-rule:nonzero;fill:rgb(100%,34.118652%,34.118652%);fill-opacity:1;" d="M 50.007812 2.910156 L 10.070312 2.910156 C 5.769531 2.910156 2.335938 5.453125 1.136719 9.183594 C 1.496094 4.28125 5.328125 0.691406 10.359375 0.691406 L 49.714844 0.691406 C 54.75 0.691406 58.578125 4.28125 58.941406 9.183594 C 57.742188 5.453125 54.308594 2.910156 50.007812 2.910156 "/>
<g clip-path="url(#clip2)" clip-rule="nonzero">
<path style=" stroke:none;fill-rule:nonzero;fill:rgb(33.329773%,18.818665%,4.309082%);fill-opacity:1;" d="M 45.847656 29.953125 L 57.074219 29.953125 L 57.074219 32.078125 C 57.074219 35.882812 54.902344 39.363281 51.460938 41.070312 C 48.023438 39.363281 45.847656 35.882812 45.847656 32.078125 L 45.847656 29.953125 "/>
</g>
<path style=" stroke:none;fill-rule:nonzero;fill:rgb(33.329773%,18.818665%,4.309082%);fill-opacity:1;" d="M 56.386719 29.953125 L 49 39.355469 C 48.539062 38.921875 48.121094 38.445312 47.75 37.933594 L 54.019531 29.953125 L 56.386719 29.953125 "/>
<path style=" stroke:none;fill-rule:nonzero;fill:rgb(25.878906%,14.509583%,3.529358%);fill-opacity:1;" d="M 56.667969 29.59375 L 56.386719 29.953125 L 49 39.355469 C 48.539062 38.921875 48.121094 38.445312 47.75 37.933594 L 54.019531 29.953125 L 55.191406 28.457031 C 55.507812 28.054688 56.097656 27.984375 56.503906 28.296875 C 56.914062 28.609375 56.984375 29.191406 56.667969 29.59375 "/>
<path style=" stroke:none;fill-rule:nonzero;fill:rgb(43.139648%,24.708557%,5.099487%);fill-opacity:1;" d="M 24.984375 55.886719 L 20.167969 55.886719 C 11.933594 55.886719 5.257812 49.277344 5.257812 41.125 C 5.257812 37.507812 6.597656 34.019531 9.023438 31.316406 L 11.992188 27.269531 C 12.453125 26.640625 12.519531 25.8125 12.171875 25.121094 C 11.53125 23.851562 9.824219 23.578125 8.8125 24.582031 C 7.902344 25.480469 6.410156 25.429688 5.570312 24.464844 L 5.042969 23.863281 C 3.507812 22.109375 3.332031 19.558594 4.609375 17.613281 C 6.707031 14.417969 10.515625 12.757812 14.3125 13.386719 C 17.429688 13.898438 20.097656 15.890625 21.457031 18.71875 L 28.640625 33.660156 L 24.984375 55.886719 "/>
<g clip-path="url(#clip3)" clip-rule="nonzero">
<path style=" stroke:none;fill-rule:nonzero;fill:rgb(25.878906%,14.509583%,3.529358%);fill-opacity:1;" d="M 57.074219 29.953125 L 45.847656 29.953125 L 45.847656 28.332031 C 45.847656 26.667969 47.210938 25.320312 48.890625 25.320312 L 54.035156 25.320312 C 55.710938 25.320312 57.074219 26.667969 57.074219 28.332031 L 57.074219 29.953125 "/>
</g>
<path style=" stroke:none;fill-rule:nonzero;fill:rgb(51.368713%,29.40979%,6.269836%);fill-opacity:1;" d="M 32.847656 37.53125 L 36.644531 34.207031 L 37.515625 34.585938 L 40.789062 35.878906 C 41.703125 36.242188 42.707031 36.308594 43.660156 36.074219 L 53.417969 33.660156 L 54.351562 29.953125 L 51.546875 28.101562 L 49.675781 29.953125 L 43.128906 30.878906 L 41.8125 29.140625 C 40.917969 27.960938 40.875 26.355469 41.699219 25.128906 L 44.0625 21.617188 L 47.832031 20.996094 C 48.894531 20.820312 49.675781 19.90625 49.675781 18.839844 L 51.054688 17.929688 C 51.808594 17.429688 52.335938 16.644531 52.457031 15.753906 C 52.640625 14.347656 51.839844 13.027344 50.542969 12.511719 L 47.804688 11.429688 L 45.785156 9.425781 C 44.683594 8.335938 43.1875 7.722656 41.628906 7.722656 L 37.515625 7.722656 L 37.117188 7.0625 C 35.625 4.597656 32.933594 3.09375 30.035156 3.09375 L 30.035156 3.410156 C 30.035156 5.578125 30.902344 7.660156 32.453125 9.191406 L 32.785156 9.523438 C 32.054688 10.28125 31.53125 11.230469 31.296875 12.277344 C 30.472656 15.957031 28.605469 19.328125 25.914062 21.992188 L 23.484375 24.394531 C 17.6875 26.117188 13.234375 30.738281 11.765625 36.554688 C 10.871094 40.089844 11.125 43.816406 12.492188 47.199219 L 13.222656 49.007812 C 14.902344 53.164062 18.96875 55.886719 23.484375 55.886719 L 42.109375 55.886719 L 42.109375 55.347656 C 42.109375 54.507812 41.769531 53.703125 41.171875 53.109375 C 40.574219 52.515625 39.761719 52.183594 38.914062 52.183594 L 31.902344 52.183594 L 34.203125 47.066406 C 35.089844 45.089844 34.789062 42.785156 33.425781 41.097656 L 33.335938 40.988281 C 32.539062 40.003906 31.867188 38.339844 32.847656 37.53125 "/>
<path style=" stroke:none;fill-rule:nonzero;fill:rgb(51.368713%,29.40979%,6.269836%);fill-opacity:1;" d="M 25 48.207031 L 22.96875 50.214844 C 22.042969 51.136719 21.53125 52.355469 21.53125 53.65625 L 21.53125 55.714844 C 20.886719 55.601562 20.261719 55.433594 19.660156 55.210938 L 19.660156 53.65625 C 19.660156 51.863281 20.363281 50.175781 21.644531 48.90625 L 23.675781 46.898438 C 24.039062 46.535156 24.632812 46.535156 25 46.898438 C 25.363281 47.257812 25.363281 47.84375 25 48.207031 "/>
<path style=" stroke:none;fill-rule:nonzero;fill:rgb(51.368713%,29.40979%,6.269836%);fill-opacity:1;" d="M 37.429688 34.585938 L 37.429688 34.65625 L 33.664062 37.761719 C 32.6875 38.570312 32.539062 40.003906 33.335938 40.988281 L 33.425781 41.097656 L 30.882812 38.289062 L 30.882812 35.511719 L 34.625 31.804688 L 37.429688 34.585938 "/>
<path style=" stroke:none;fill-rule:nonzero;fill:rgb(39.99939%,22.749329%,4.708862%);fill-opacity:1;" d="M 25 48.207031 L 22.96875 50.214844 C 22.042969 51.136719 21.53125 52.355469 21.53125 53.65625 L 21.53125 55.714844 C 20.886719 55.601562 20.261719 55.433594 19.660156 55.210938 L 19.660156 53.65625 C 19.660156 51.863281 20.363281 50.175781 21.644531 48.90625 L 23.675781 46.898438 C 24.039062 46.535156 24.632812 46.535156 25 46.898438 C 25.363281 47.257812 25.363281 47.84375 25 48.207031 "/>
<path style=" stroke:none;fill-rule:nonzero;fill:rgb(25.878906%,14.509583%,3.529358%);fill-opacity:1;" d="M 43.980469 12.355469 C 43.980469 13.378906 43.140625 14.207031 42.109375 14.207031 C 41.074219 14.207031 40.238281 13.378906 40.238281 12.355469 C 40.238281 11.332031 41.074219 10.503906 42.109375 10.503906 C 43.140625 10.503906 43.980469 11.332031 43.980469 12.355469 "/>
<path style=" stroke:none;fill-rule:nonzero;fill:rgb(39.99939%,22.749329%,4.708862%);fill-opacity:1;" d="M 16.023438 45.699219 C 15.558594 45.699219 15.15625 45.355469 15.097656 44.886719 C 14.46875 39.929688 16.425781 35.082031 20.332031 31.917969 L 22.316406 30.3125 C 23.90625 29.023438 25.371094 27.570312 26.671875 25.996094 L 31.292969 20.402344 C 32.304688 19.179688 32.859375 17.636719 32.859375 16.058594 C 32.859375 15.546875 33.277344 15.132812 33.796875 15.132812 C 34.3125 15.132812 34.730469 15.546875 34.730469 16.058594 C 34.730469 18.066406 34.023438 20.023438 32.742188 21.574219 L 28.121094 27.167969 C 26.742188 28.839844 25.1875 30.378906 23.5 31.746094 L 21.515625 33.351562 C 18.113281 36.109375 16.40625 40.335938 16.953125 44.660156 C 17.015625 45.164062 16.652344 45.628906 16.140625 45.691406 C 16.101562 45.699219 16.0625 45.699219 16.023438 45.699219 "/>
<path style=" stroke:none;fill-rule:nonzero;fill:rgb(39.99939%,22.749329%,4.708862%);fill-opacity:1;" d="M 48.550781 16.785156 C 46.953125 16.785156 45.421875 16.03125 44.460938 14.765625 C 44.152344 14.355469 44.234375 13.773438 44.648438 13.464844 C 45.058594 13.160156 45.648438 13.242188 45.957031 13.648438 C 46.566406 14.453125 47.539062 14.933594 48.550781 14.933594 C 48.554688 14.933594 48.554688 14.933594 48.558594 14.933594 C 49.074219 14.933594 49.492188 15.347656 49.492188 15.859375 C 49.492188 16.371094 49.074219 16.785156 48.558594 16.785156 C 48.554688 16.785156 48.554688 16.785156 48.550781 16.785156 "/>
<path style=" stroke:none;fill-rule:nonzero;fill:rgb(39.99939%,22.749329%,4.708862%);fill-opacity:1;" d="M 35.09375 13.28125 C 34.960938 13.28125 34.824219 13.25 34.691406 13.191406 C 34.226562 12.96875 34.03125 12.417969 34.253906 11.957031 C 34.726562 10.96875 35.5625 10.226562 36.601562 9.863281 L 37.121094 9.683594 C 37.605469 9.511719 38.140625 9.765625 38.3125 10.25 C 38.484375 10.730469 38.230469 11.257812 37.742188 11.429688 L 37.226562 11.609375 C 36.65625 11.808594 36.199219 12.214844 35.941406 12.753906 C 35.78125 13.085938 35.445312 13.28125 35.09375 13.28125 "/>
<path style=" stroke:none;fill-rule:nonzero;fill:rgb(79.60968%,79.60968%,79.60968%);fill-opacity:1;" d="M 37.429688 34.585938 L 37.429688 34.65625 L 33.664062 37.761719 C 32.6875 38.570312 32.539062 40.003906 33.335938 40.988281 L 33.425781 41.097656 L 30.882812 38.289062 L 30.882812 35.511719 L 34.625 31.804688 L 37.429688 34.585938 "/>
<g clip-path="url(#clip4)" clip-rule="nonzero">
<path style=" stroke:none;fill-rule:nonzero;fill:rgb(0%,0%,0%);fill-opacity:1;" d="M 56.136719 32.078125 C 56.136719 35.398438 54.359375 38.402344 51.460938 40.019531 C 50.769531 39.632812 50.140625 39.160156 49.578125 38.625 L 52.5625 34.824219 L 53.644531 34.558594 C 53.980469 34.472656 54.242188 34.214844 54.324219 33.882812 L 54.808594 31.960938 L 55.660156 30.878906 L 56.136719 30.878906 Z M 49.621094 35.554688 L 48.351562 37.167969 C 48.105469 36.804688 47.886719 36.425781 47.695312 36.03125 Z M 43.433594 35.175781 C 42.664062 35.363281 41.871094 35.3125 41.136719 35.019531 L 37.898438 33.738281 L 35.285156 31.152344 C 34.921875 30.789062 34.328125 30.789062 33.964844 31.152344 L 30.222656 34.855469 C 30.046875 35.03125 29.949219 35.265625 29.949219 35.511719 L 29.949219 38.289062 C 29.949219 38.515625 30.035156 38.738281 30.1875 38.90625 L 32.703125 41.6875 C 33.847656 43.113281 34.09375 45.027344 33.347656 46.6875 L 31.296875 51.257812 L 28.078125 51.257812 C 27.5625 51.257812 27.140625 51.671875 27.140625 52.183594 C 27.140625 52.695312 27.5625 53.109375 28.078125 53.109375 L 31.820312 53.109375 C 31.835938 53.109375 31.851562 53.109375 31.867188 53.105469 C 31.878906 53.109375 31.890625 53.109375 31.902344 53.109375 L 38.914062 53.109375 C 39.515625 53.109375 40.085938 53.34375 40.511719 53.765625 C 40.84375 54.09375 41.0625 54.511719 41.140625 54.960938 L 23.484375 54.960938 C 22.820312 54.960938 22.164062 54.898438 21.53125 54.777344 L 21.53125 53.65625 C 21.53125 52.355469 22.039062 51.136719 22.96875 50.214844 L 24.996094 48.207031 C 25.363281 47.84375 25.363281 47.257812 24.996094 46.898438 C 24.632812 46.535156 24.039062 46.535156 23.675781 46.898438 L 21.644531 48.90625 C 20.363281 50.175781 19.660156 51.863281 19.660156 53.65625 L 19.660156 54.226562 C 17.167969 53.222656 15.140625 51.253906 14.09375 48.664062 L 13.363281 46.855469 C 12.058594 43.632812 11.820312 40.148438 12.671875 36.78125 C 14.054688 31.308594 18.300781 26.902344 23.753906 25.28125 C 23.902344 25.238281 26.574219 22.648438 26.574219 22.648438 C 29.394531 19.851562 31.34375 16.335938 32.210938 12.480469 C 32.40625 11.609375 32.839844 10.808594 33.460938 10.164062 C 33.8125 9.796875 33.808594 9.222656 33.449219 8.867188 L 33.113281 8.539062 C 31.890625 7.328125 31.15625 5.765625 31 4.082031 C 33.1875 4.375 35.164062 5.644531 36.3125 7.539062 L 36.714844 8.199219 C 36.882812 8.480469 37.1875 8.648438 37.515625 8.648438 L 41.628906 8.648438 C 42.949219 8.648438 44.191406 9.160156 45.125 10.082031 L 47.144531 12.082031 C 47.234375 12.171875 47.339844 12.242188 47.457031 12.289062 L 50.195312 13.371094 C 51.105469 13.734375 51.65625 14.664062 51.527344 15.632812 C 51.449219 16.238281 51.085938 16.792969 50.535156 17.15625 L 49.15625 18.066406 C 48.898438 18.238281 48.742188 18.527344 48.742188 18.839844 C 48.742188 19.457031 48.292969 19.980469 47.675781 20.082031 L 43.910156 20.703125 C 43.65625 20.746094 43.429688 20.890625 43.285156 21.101562 L 40.921875 24.617188 C 39.878906 26.164062 39.933594 28.207031 41.0625 29.695312 L 42.378906 31.433594 C 42.585938 31.707031 42.921875 31.84375 43.261719 31.796875 C 43.261719 31.796875 50.179688 30.734375 50.214844 30.710938 C 50.222656 30.703125 51.664062 29.292969 51.664062 29.292969 L 53.285156 30.363281 L 52.644531 32.894531 Z M 33.066406 37.050781 C 32.648438 37.394531 32.339844 37.824219 32.144531 38.296875 L 31.820312 37.933594 L 31.820312 35.894531 L 34.625 33.117188 L 36.085938 34.5625 Z M 6.191406 41.125 C 6.191406 37.730469 7.445312 34.464844 9.722656 31.929688 C 9.742188 31.90625 9.761719 31.882812 9.78125 31.859375 L 12.75 27.8125 C 13.414062 26.902344 13.515625 25.710938 13.007812 24.707031 C 12.566406 23.832031 11.753906 23.242188 10.78125 23.085938 C 9.808594 22.929688 8.847656 23.234375 8.152344 23.925781 C 7.894531 24.175781 7.558594 24.308594 7.199219 24.296875 C 6.925781 24.285156 6.671875 24.195312 6.460938 24.03125 C 6.484375 23.988281 6.503906 23.945312 6.519531 23.898438 L 7.292969 21.539062 C 7.660156 20.433594 8.535156 19.542969 9.640625 19.152344 C 10.542969 18.832031 11.523438 18.859375 12.40625 19.226562 C 15.070312 20.335938 17.160156 22.519531 18.132812 25.214844 L 18.339844 25.792969 C 17.25 26.515625 16.234375 27.355469 15.324219 28.300781 C 13.160156 30.542969 11.617188 33.320312 10.855469 36.332031 C 9.910156 40.078125 10.175781 43.957031 11.625 47.542969 L 12.355469 49.351562 C 13.171875 51.371094 14.511719 53.105469 16.253906 54.410156 C 10.449219 52.730469 6.191406 47.410156 6.191406 41.125 Z M 5.394531 18.117188 C 7.289062 15.230469 10.730469 13.734375 14.15625 14.300781 C 16.972656 14.765625 19.382812 16.5625 20.613281 19.117188 L 22.789062 23.644531 C 21.816406 23.957031 20.875 24.355469 19.976562 24.824219 L 19.894531 24.59375 C 18.742188 21.410156 16.28125 18.832031 13.132812 17.519531 C 11.820312 16.972656 10.355469 16.929688 9.011719 17.40625 C 7.363281 17.988281 6.058594 19.320312 5.515625 20.964844 L 5.09375 22.246094 C 4.488281 20.9375 4.574219 19.367188 5.394531 18.117188 Z M 46.785156 28.332031 C 46.785156 27.183594 47.730469 26.25 48.890625 26.25 L 54.035156 26.25 C 55.195312 26.25 56.136719 27.183594 56.136719 28.332031 L 56.136719 29.027344 L 54.636719 29.027344 L 52.066406 27.332031 C 51.695312 27.085938 51.199219 27.132812 50.886719 27.445312 L 49.289062 29.027344 L 46.785156 29.027344 Z M 54.035156 24.394531 L 48.890625 24.394531 C 46.699219 24.394531 44.914062 26.160156 44.914062 28.332031 L 44.914062 29.691406 L 43.542969 29.886719 L 42.558594 28.585938 C 41.90625 27.722656 41.875 26.539062 42.476562 25.644531 L 44.617188 22.464844 L 47.984375 21.910156 C 49.328125 21.6875 50.347656 20.652344 50.566406 19.363281 L 51.574219 18.699219 C 52.574219 18.039062 53.234375 17.007812 53.382812 15.871094 C 53.621094 14.0625 52.597656 12.328125 50.890625 11.652344 L 48.332031 10.640625 L 46.445312 8.773438 C 45.160156 7.5 43.449219 6.796875 41.628906 6.796875 L 38.046875 6.796875 L 37.917969 6.585938 C 36.265625 3.859375 33.246094 2.164062 30.035156 2.164062 C 29.515625 2.164062 29.097656 2.582031 29.097656 3.09375 L 29.097656 3.410156 C 29.097656 5.714844 29.957031 7.890625 31.527344 9.574219 C 30.976562 10.320312 30.585938 11.171875 30.382812 12.078125 C 29.597656 15.589844 27.820312 18.792969 25.25 21.335938 L 24.234375 22.34375 L 22.300781 18.320312 C 20.8125 15.222656 17.882812 13.035156 14.464844 12.472656 C 10.304688 11.785156 6.125 13.605469 3.824219 17.109375 C 2.328125 19.386719 2.539062 22.414062 4.335938 24.46875 L 4.863281 25.070312 C 5.433594 25.722656 6.257812 26.117188 7.132812 26.148438 C 8.003906 26.179688 8.855469 25.847656 9.472656 25.234375 C 9.742188 24.96875 10.109375 24.855469 10.480469 24.914062 C 10.855469 24.972656 11.164062 25.199219 11.332031 25.535156 C 11.527344 25.917969 11.492188 26.375 11.234375 26.722656 L 8.292969 30.734375 C 5.730469 33.605469 4.320312 37.292969 4.320312 41.125 C 4.320312 49.777344 11.429688 56.816406 20.167969 56.816406 L 42.109375 56.816406 C 42.625 56.816406 43.042969 56.398438 43.042969 55.886719 L 43.042969 55.347656 C 43.042969 54.253906 42.613281 53.226562 41.832031 52.453125 C 41.054688 51.683594 40.015625 51.257812 38.914062 51.257812 L 33.34375 51.257812 L 35.054688 47.441406 C 36.089844 45.140625 35.742188 42.484375 34.15625 40.519531 L 34.066406 40.410156 C 33.59375 39.824219 33.679688 38.953125 34.265625 38.472656 L 37.6875 35.648438 L 40.441406 36.742188 C 41.542969 37.175781 42.734375 37.257812 43.886719 36.972656 L 45.851562 36.488281 C 46.890625 38.835938 48.710938 40.742188 51.042969 41.898438 C 51.175781 41.960938 51.316406 41.996094 51.460938 41.996094 C 51.605469 41.996094 51.75 41.960938 51.878906 41.898438 C 55.660156 40.023438 58.007812 36.261719 58.007812 32.078125 L 58.007812 28.332031 C 58.007812 26.160156 56.226562 24.394531 54.035156 24.394531 "/>
</g>
<path style=" stroke:none;fill-rule:nonzero;fill:rgb(0%,0%,0%);fill-opacity:1;" d="M 42.109375 14.207031 C 43.140625 14.207031 43.980469 13.378906 43.980469 12.355469 C 43.980469 11.332031 43.140625 10.503906 42.109375 10.503906 C 41.074219 10.503906 40.238281 11.332031 40.238281 12.355469 C 40.238281 13.378906 41.074219 14.207031 42.109375 14.207031 "/>
<path style=" stroke:none;fill-rule:nonzero;fill:rgb(0%,0%,0%);fill-opacity:1;" d="M 33.796875 15.132812 C 33.277344 15.132812 32.859375 15.546875 32.859375 16.058594 C 32.859375 17.636719 32.304688 19.179688 31.292969 20.402344 L 26.671875 25.996094 C 25.371094 27.570312 23.90625 29.023438 22.316406 30.3125 L 20.332031 31.917969 C 16.425781 35.082031 14.46875 39.929688 15.097656 44.886719 C 15.15625 45.355469 15.558594 45.699219 16.023438 45.699219 C 16.0625 45.699219 16.101562 45.699219 16.140625 45.691406 C 16.652344 45.628906 17.015625 45.164062 16.953125 44.660156 C 16.40625 40.335938 18.113281 36.109375 21.515625 33.351562 L 23.5 31.746094 C 25.1875 30.378906 26.742188 28.839844 28.121094 27.167969 L 32.742188 21.574219 C 34.023438 20.023438 34.730469 18.066406 34.730469 16.058594 C 34.730469 15.546875 34.3125 15.132812 33.796875 15.132812 "/>
<path style=" stroke:none;fill-rule:nonzero;fill:rgb(0%,0%,0%);fill-opacity:1;" d="M 48.550781 16.785156 C 48.554688 16.785156 48.554688 16.785156 48.558594 16.785156 C 49.074219 16.785156 49.492188 16.371094 49.492188 15.859375 C 49.492188 15.347656 49.074219 14.933594 48.558594 14.933594 C 48.554688 14.933594 48.554688 14.933594 48.550781 14.933594 C 47.539062 14.933594 46.566406 14.453125 45.957031 13.648438 C 45.648438 13.242188 45.058594 13.160156 44.648438 13.464844 C 44.234375 13.773438 44.152344 14.355469 44.460938 14.765625 C 45.421875 16.03125 46.953125 16.785156 48.550781 16.785156 "/>
<path style=" stroke:none;fill-rule:nonzero;fill:rgb(0%,0%,0%);fill-opacity:1;" d="M 37.121094 9.683594 L 36.601562 9.863281 C 35.5625 10.226562 34.726562 10.96875 34.253906 11.957031 C 34.03125 12.417969 34.226562 12.96875 34.691406 13.191406 C 34.824219 13.25 34.960938 13.28125 35.09375 13.28125 C 35.445312 13.28125 35.78125 13.085938 35.941406 12.753906 C 36.199219 12.214844 36.65625 11.808594 37.226562 11.609375 L 37.742188 11.429688 C 38.230469 11.257812 38.484375 10.730469 38.3125 10.25 C 38.140625 9.765625 37.605469 9.511719 37.121094 9.683594 "/>
</g>
</svg>
